{
  "accessors": [
    {
      "bufferView": 2,
      "componentType": 5126,
      "count": 120,
      "max": [
        3.173506736755371,
        0.4285828769207001,
        0.5
      ],
      "min": [
        -3.386364459991455,
        -0.3608143925666809,
        -0.5
      ],
      "type": "VEC3"
    },
    {
      "bufferView": 2,
      "byteOffset": 1440,
      "componentType": 5126,
      "count": 120,
      "max": [
        1.0,
        1.0,
        1.0
      ],
      "min": [
        -1.0,
        -1.0,
        -1.0
      ],
      "type": "VEC3"
    },
    {
      "bufferView": 1,
      "componentType": 5126,
      "count": 120,
      "max": [
        0.9215055108070374,
        0.9980079531669617
      ],
      "min": [
        0.0018393530044704676,
        0.0019919092301279306
      ],
      "type": "VEC2"
    },
    {
      "bufferView": 1,
      "byteOffset": 960,
      "componentType": 5126,
      "count": 120,
      "max": [
        0.9215055108070374,
        0.9980079531669617
      ],
      "min": [
        0.0018393530044704676,
        0.0019919092301279306
      ],
      "type": "VEC2"
    },
    {
      "bufferView": 0,
      "componentType": 5125,
      "count": 288,
      "type": "SCALAR"
    },
    {
      "bufferView": 2,
      "byteOffset": 2880,
      "componentType": 5126,
      "count": 66,
      "max": [
        1.0258604288101196,
        9.205471992492676,
        1.02586030960083
      ],
      "min": [
        -1.02586030960083,
        -1.0,
        -1.02586030960083
      ],
      "type": "VEC3"
    },
    {
      "bufferView": 2,
      "byteOffset": 3672,
      "componentType": 5126,
      "count": 66,
      "max": [
        0.9325198531150818,
        1.0,
        0.911149799823761
      ],
      "min": [
        -0.9325198531150818,
        -1.0,
        -0.9106012582778931
      ],
      "type": "VEC3"
    },
    {
      "bufferView": 1,
      "byteOffset": 1920,
      "componentType": 5126,
      "count": 66,
      "max": [
        0.8409748077392578,
        0.998008131980896
      ],
      "min": [
        0.0016785913612693548,
        0.0019920282065868378
      ],
      "type": "VEC2"
    },
    {
      "bufferView": 1,
      "byteOffset": 2448,
      "componentType": 5126,
      "count": 66,
      "max": [
        0.8409748077392578,
        0.998008131980896
      ],
      "min": [
        0.0016785913612693548,
        0.0019920282065868378
      ],
      "type": "VEC2"
    },
    {
      "bufferView": 0,
      "byteOffset": 1152,
      "componentType": 5125,
      "count": 144,
      "type": "SCALAR"
    },
    {
      "bufferView": 2,
      "byteOffset": 4464,
      "componentType": 5126,
      "count": 996,
      "max": [
        0.9548434615135193,
        1.7983644008636475,
        1.0201449394226074
      ],
      "min": [
        -0.9548435211181641,
        -5.499802112579346,
        -1.07466721534729
      ],
      "type": "VEC3"
    },
    {
      "bufferView": 2,
      "byteOffset": 16416,
      "componentType": 5126,
      "count": 996,
      "max": [
        0.9999944567680359,
        1.0,
        0.9999988079071045
      ],
      "min": [
        -0.9999944567680359,
        -0.9999999403953552,
        -0.9999951124191284
      ],
      "type": "VEC3"
    },
    {
      "bufferView": 1,
      "byteOffset": 2976,
      "componentType": 5126,
      "count": 996,
      "max": [
        0.9266946911811829,
        0.9980080127716064
      ],
      "min": [
        0.001849671476520598,
        0.001991847762838006
      ],
      "type": "VEC2"
    },
    {
      "bufferView": 1,
      "byteOffset": 10944,
      "componentType": 5126,
      "count": 996,
      "max": [
        0.9266946911811829,
        0.9980080127716064
      ],
      "min": [
        0.001849671476520598,
        0.001991847762838006
      ],
      "type": "VEC2"
    },
    {
      "bufferView": 0,
      "byteOffset": 1728,
      "componentType": 5125,
      "count": 4320,
      "type": "SCALAR"
    },
    {
      "bufferView": 2,
      "byteOffset": 28368,
      "componentType": 5126,
      "count": 102,
      "max": [
        0.07336512207984924,
        0.6424846649169922,
        2.5104010105133057
      ],
      "min": [
        -0.10311885923147202,
        -0.8460507988929749,
        -0.4649052619934082
      ],
      "type": "VEC3"
    },
    {
      "bufferView": 2,
      "byteOffset": 29592,
      "componentType": 5126,
      "count": 102,
      "max": [
        1.0,
        0.9999463558197021,
        0.9227248430252075
      ],
      "min": [
        -1.0,
        -0.999999463558197,
        -1.0
      ],
      "type": "VEC3"
    },
    {
      "bufferView": 1,
      "byteOffset": 18912,
      "componentType": 5126,
      "count": 102,
      "max": [
        0.9980080723762512,
        0.893639326095581
      ],
      "min": [
        0.0019920659251511097,
        0.001783675397746265
      ],
      "type": "VEC2"
    },
    {
      "bufferView": 1,
      "byteOffset": 19728,
      "componentType": 5126,
      "count": 102,
      "max": [
        0.9980080723762512,
        0.893639326095581
      ],
      "min": [
        0.0019920659251511097,
        0.001783675397746265
      ],
      "type": "VEC2"
    },
    {
      "bufferView": 0,
      "byteOffset": 19008,
      "componentType": 5125,
      "count": 228,
      "type": "SCALAR"
    },
    {
      "bufferView": 2,
      "byteOffset": 30816,
      "componentType": 5126,
      "count": 870,
      "max": [
        4.189886569976807,
        4.734200954437256,
        0.11000414192676544
      ],
      "min": [
        -4.201403617858887,
        -2.568504810333252,
        -0.203150674700737
      ],
      "type": "VEC3"
    },
    {
      "bufferView": 2,
      "byteOffset": 41256,
      "componentType": 5126,
      "count": 870,
      "max": [
        0.996569812297821,
        0.9998120069503784,
        0.999970018863678
      ],
      "min": [
        -0.9961084127426147,
        -0.9998247027397156,
        -0.999998152256012
      ],
      "type": "VEC3"
    },
    {
      "bufferView": 1,
      "byteOffset": 20544,
      "componentType": 5126,
      "count": 870,
      "max": [
        0.998008131980896,
        0.973244309425354
      ],
      "min": [
        0.001992044970393181,
        0.0019426030339673162
      ],
      "type": "VEC2"
    },
    {
      "bufferView": 1,
      "byteOffset": 27504,
      "componentType": 5126,
      "count": 870,
      "max": [
        0.875,
        1.0
      ],
      "min": [
        0.0,
        0.0
      ],
      "type": "VEC2"
    },
    {
      "bufferView": 1,
      "byteOffset": 34464,
      "componentType": 5126,
      "count": 870,
      "max": [
        0.875,
        1.0
      ],
      "min": [
        0.0,
        0.0
      ],
      "type": "VEC2"
    },
    {
      "bufferView": 1,
      "byteOffset": 41424,
      "componentType": 5126,
      "count": 870,
      "max": [
        0.998008131980896,
        0.973244309425354
      ],
      "min": [
        0.001992044970393181,
        0.0019426030339673162
      ],
      "type": "VEC2"
    },
    {
      "bufferView": 0,
      "byteOffset": 19920,
      "componentType": 5125,
      "count": 3456,
      "type": "SCALAR"
    },
    {
      "bufferView": 3,
      "componentType": 5126,
      "count": 31,
      "max": [
        1.0
      ],
      "min": [
        0.0416666679084301
      ],
      "type": "SCALAR"
    },
    {
      "bufferView": 4,
      "componentType": 5126,
      "count": 31,
      "max": [
        0.0,
        0.0,
        0.9887372851371765,
        1.0
      ],
      "min": [
        0.0,
        0.0,
        -0.8325750827789307,
        -0.4926476776599884
      ],
      "type": "VEC4"
    }
  ],
  "animations": [
    {
      "channels": [
        {
          "sampler": 0,
          "target": {
            "node": 12,
            "path": "rotation"
          }
        }
      ],
      "name": "Take 001",
      "samplers": [
        {
          "input": 27,
          "interpolation": "LINEAR",
          "output": 28
        }
      ]
    }
  ],
  "asset": {
    "extras": {
      "author": "RossView (https://sketchfab.com/masteruslan)",
      "license": "CC-BY-4.0 (http://creativecommons.org/licenses/by/4.0/)",
      "source": "https://sketchfab.com/3d-models/windmill-e01e95337f1b40e8911668e1be876892",
      "title": "Windmill"
    },
    "generator": "Sketchfab-12.68.0",
    "version": "2.0"
  },
  "bufferViews": [
    {
      "buffer": 0,
      "byteLength": 33744,
      "name": "floatBufferViews",
      "target": 34963
    },
    {
      "buffer": 0,
      "byteLength": 48384,
      "byteOffset": 33744,
      "byteStride": 8,
      "name": "floatBufferViews",
      "target": 34962
    },
    {
      "buffer": 0,
      "byteLength": 51696,
      "byteOffset": 82128,
      "byteStride": 12,
      "name": "floatBufferViews",
      "target": 34962
    },
    {
      "buffer": 0,
      "byteLength": 124,
      "byteOffset": 133824,
      "name": "floatBufferViews"
    },
    {
      "buffer": 0,
      "byteLength": 496,
      "byteOffset": 133948,
      "byteStride": 16,
      "name": "floatBufferViews"
    }
  ],
  "buffers": [
    {
      "byteLength": 134444,
      "uri": "scene.bin"
    }
  ],
  "materials": [
    {
      "doubleSided": true,
      "name": "blinn1",
      "pbrMetallicRoughness": {
        "baseColorFactor": [
          0.7082484669622274,
          0.7082484669622274,
          0.7082484669622274,
          1.0
        ],
        "metallicFactor": 0.0,
        "roughnessFactor": 0.6
      }
    }
  ],
  "meshes": [
    {
      "name": "pCube1_blinn1_0",
      "primitives": [
        {
          "attributes": {
            "NORMAL": 1,
            "POSITION": 0,
            "TEXCOORD_0": 2,
            "TEXCOORD_1": 3
          },
          "indices": 4,
          "material": 0,
          "mode": 4
        }
      ]
    },
    {
      "name": "pCylinder1_blinn1_0",
      "primitives": [
        {
          "attributes": {
            "NORMAL": 6,
            "POSITION": 5,
            "TEXCOORD_0": 7,
            "TEXCOORD_1": 8
          },
          "indices": 9,
          "material": 0,
          "mode": 4
        }
      ]
    },
    {
      "name": "pCylinder2_blinn1_0",
      "primitives": [
        {
          "attributes": {
            "NORMAL": 11,
            "POSITION": 10,
            "TEXCOORD_0": 12,
            "TEXCOORD_1": 13
          },
          "indices": 14,
          "material": 0,
          "mode": 4
        }
      ]
    },
    {
      "name": "pCube4_blinn1_0",
      "primitives": [
        {
          "attributes": {
            "NORMAL": 16,
            "POSITION": 15,
            "TEXCOORD_0": 17,
            "TEXCOORD_1": 18
          },
          "indices": 19,
          "material": 0,
          "mode": 4
        }
      ]
    },
    {
      "name": "pCube6_blinn1_0",
      "primitives": [
        {
          "attributes": {
            "NORMAL": 21,
            "POSITION": 20,
            "TEXCOORD_0": 22,
            "TEXCOORD_1": 23,
            "TEXCOORD_2": 24,
            "TEXCOORD_3": 25
          },
          "indices": 26,
          "material": 0,
          "mode": 4
        }
      ]
    }
  ],
  "nodes": [
    {
      "children": [
        1
      ],
      "matrix": [
        1.0,
        0.0,
        0.0,
        0.0,
        0.0,
        2.220446049250313e-16,
        -1.0,
        0.0,
        0.0,
        1.0,
        2.220446049250313e-16,
        0.0,
        0.0,
        0.0,
        0.0,
        1.0
      ],
      "name": "Sketchfab_model"
    },
    {
      "children": [
        2
      ],
      "matrix": [
        1.0,
        0.0,
        0.0,
        0.0,
        0.0,
        0.0,
        1.0,
        0.0,
        0.0,
        -1.0,
        0.0,
        0.0,
        0.0,
        0.0,
        0.0,
        1.0
      ],
      "name": "de33ee715918437b98104a4748442e91.fbx"
    },
    {
      "children": [
        3
      ],
      "name": "Object_2"
    },
    {
      "children": [
        4,
        6,
        8,
        10,
        12
      ],
      "name": "RootNode"
    },
    {
      "children": [
        5
      ],
      "name": "pCube1",
      "scale": [
        1.0,
        1.0,
        6.557408809661865
      ],
      "translation": [
        0.0,
        0.34719160199165344,
        0.0
      ]
    },
    {
      "mesh": 0,
      "name": "pCube1_blinn1_0"
    },
    {
      "children": [
        7
      ],
      "name": "pCylinder1",
      "scale": [
        0.9475023746490479,
        0.9475023746490479,
        0.9475023746490479
      ],
      "translation": [
        -0.043487560003995895,
        1.7460819482803345,
        -0.07116146385669708
      ]
    },
    {
      "mesh": 1,
      "name": "pCylinder1_blinn1_0"
    },
    {
      "children": [
        9
      ],
      "name": "pCylinder2",
      "rotation": [
        0.7071068286895752,
        0.0,
        0.0,
        0.7071068286895752
      ],
      "scale": [
        0.58314448595047,
        0.58314448595047,
        0.58314448595047
      ],
      "translation": [
        0.0,
        10.898357391357422,
        0.9083216786384583
      ]
    },
    {
      "mesh": 2,
      "name": "pCylinder2_blinn1_0"
    },
    {
      "children": [
        11
      ],
      "name": "pCube4",
      "translation": [
        -0.06277360022068024,
        12.13219165802002,
        -4.126426696777344
      ]
    },
    {
      "mesh": 3,
      "name": "pCube4_blinn1_0"
    },
    {
      "children": [
        13
      ],
      "name": "pCube6",
      "rotation": [
        0.0,
        -0.0,
        -0.1378227174282074,
        0.9904569387435913
      ],
      "translation": [
        0.0,
        10.950704574584961,
        0.7004017233848572
      ]
    },
    {
      "mesh": 4,
      "name": "pCube6_blinn1_0"
    }
  ],
  "scene": 0,
  "scenes": [
    {
      "name": "Sketchfab_Scene",
      "nodes": [
        0
      ]
    }
  ]
}
