{
  "accessors": [
    {
      "bufferView": 2,
      "componentType": 5126,
      "count": 12932,
      "max": [
        0.7565992474555969,
        1.3150936365127563,
        3.3303394317626953
      ],
      "min": [
        -0.7558420896530151,
        -2.905043363571167,
        -2.156484603881836
      ],
      "type": "VEC3"
    },
    {
      "bufferView": 2,
      "byteOffset": 155184,
      "componentType": 5126,
      "count": 12932,
      "max": [
        0.9997925758361816,
        0.9992188215255737,
        0.9997364282608032
      ],
      "min": [
        -0.9999902248382568,
        -0.9999257326126099,
        -0.9996180534362793
      ],
      "type": "VEC3"
    },
    {
      "bufferView": 3,
      "componentType": 5126,
      "count": 12932,
      "max": [
        1.0,
        0.9999836087226868,
        0.9999799728393555,
        1.0
      ],
      "min": [
        -0.9997442960739136,
        -0.9996293187141418,
        -0.9994412064552307,
        -1.0
      ],
      "type": "VEC4"
    },
    {
      "bufferView": 1,
      "componentType": 5126,
      "count": 12932,
      "max": [
        0.9996618032455444,
        0.935165524482727
      ],
      "min": [
        0.000338198704412207,
        0.000338198704412207
      ],
      "type": "VEC2"
    },
    {
      "bufferView": 0,
      "componentType": 5125,
      "count": 72330,
      "type": "SCALAR"
    },
    {
      "bufferView": 2,
      "byteOffset": 310368,
      "componentType": 5126,
      "count": 3968,
      "max": [
        0.4806068539619446,
        3.6188504695892334,
        4.88242244720459
      ],
      "min": [
        -0.4806068539619446,
        3.456975221633911,
        4.720547676086426
      ],
      "type": "VEC3"
    },
    {
      "bufferView": 2,
      "byteOffset": 357984,
      "componentType": 5126,
      "count": 3968,
      "max": [
        0.9904387593269348,
        0.9951384663581848,
        0.990439236164093
      ],
      "min": [
        -0.9904387593269348,
        -0.9951384663581848,
        -0.990439236164093
      ],
      "type": "VEC3"
    },
    {
      "bufferView": 1,
      "byteOffset": 103456,
      "componentType": 5126,
      "count": 3968,
      "max": [
        1.0000001192092896,
        1.0
      ],
      "min": [
        0.0,
        0.0
      ],
      "type": "VEC2"
    },
    {
      "bufferView": 0,
      "byteOffset": 289320,
      "componentType": 5125,
      "count": 5760,
      "type": "SCALAR"
    }
  ],
  "asset": {
    "extras": {
      "author": "FKSON Business Solution (https://sketchfab.com/triaz686)",
      "license": "CC-BY-SA-4.0 (http://creativecommons.org/licenses/by-sa/4.0/)",
      "source": "https://sketchfab.com/3d-models/camel-3d-db9ab7d6bf2d4e508b825cc640d60fd9",
      "title": "Camel 3D"
    },
    "generator": "Sketchfab-12.67.0",
    "version": "2.0"
  },
  "bufferViews": [
    {
      "buffer": 0,
      "byteLength": 312360,
      "name": "floatBufferViews",
      "target": 34963
    },
    {
      "buffer": 0,
      "byteLength": 135200,
      "byteOffset": 312360,
      "byteStride": 8,
      "name": "floatBufferViews",
      "target": 34962
    },
    {
      "buffer": 0,
      "byteLength": 405600,
      "byteOffset": 447560,
      "byteStride": 12,
      "name": "floatBufferViews",
      "target": 34962
    },
    {
      "buffer": 0,
      "byteLength": 206912,
      "byteOffset": 853160,
      "byteStride": 16,
      "name": "floatBufferViews",
      "target": 34962
    }
  ],
  "buffers": [
    {
      "byteLength": 1060072,
      "uri": "scene.bin"
    }
  ],
  "images": [
    {
      "uri": "textures/Material_baseColor.png"
    },
    {
      "uri": "textures/Material_normal.png"
    }
  ],
  "materials": [
    {
      "doubleSided": true,
      "name": "Material",
      "normalTexture": {
        "index": 1
      },
      "pbrMetallicRoughness": {
        "baseColorTexture": {
          "index": 0
        },
        "metallicFactor": 0.0,
        "roughnessFactor": 0.5
      }
    },
    {
      "doubleSided": true,
      "name": "Material.001",
      "pbrMetallicRoughness": {
        "baseColorFactor": [
          0.0,
          0.0,
          0.0,
          1.0
        ],
        "metallicFactor": 0.0,
        "roughnessFactor": 0.5
      }
    }
  ],
  "meshes": [
    {
      "name": "Object_0",
      "primitives": [
        {
          "attributes": {
            "NORMAL": 1,
            "POSITION": 0,
            "TANGENT": 2,
            "TEXCOORD_0": 3
          },
          "indices": 4,
          "material": 0,
          "mode": 4
        }
      ]
    },
    {
      "name": "Object_1",
      "primitives": [
        {
          "attributes": {
            "NORMAL": 6,
            "POSITION": 5,
            "TEXCOORD_0": 7
          },
          "indices": 8,
          "material": 1,
          "mode": 4
        }
      ]
    }
  ],
  "nodes": [
    {
      "children": [
        1
      ],
      "matrix": [
        1.0,
        0.0,
        0.0,
        0.0,
        0.0,
        3.828568672208042e-16,
        -1.0,
        0.0,
        0.0,
        1.0,
        3.828568672208042e-16,
        0.0,
        0.0,
        -3.2439329000766283e-16,
        -4.440892098500627e-16,
        1.0
      ],
      "name": "Sketchfab_model"
    },
    {
      "children": [
        2
      ],
      "name": "root"
    },
    {
      "children": [
        3,
        5
      ],
      "matrix": [
        1.0,
        0.0,
        0.0,
        0.0,
        0.0,
        2.220446049250313e-16,
        1.0,
        0.0,
        0.0,
        -1.0,
        2.220446049250313e-16,
        0.0,
        0.0,
        0.0,
        0.0,
        1.0
      ],
      "name": "GLTF_SceneRootNode"
    },
    {
      "children": [
        4
      ],
      "matrix": [
        1.952683687210083,
        0.0,
        0.0,
        0.0,
        0.0,
        1.952683687210083,
        0.0,
        0.0,
        0.0,
        0.0,
        1.952683687210083,
        0.0,
        0.0,
        1.548039197921753,
        -0.4017811417579651,
        1.0
      ],
      "name": "Camel_2"
    },
    {
      "mesh": 0,
      "name": "Object_4"
    },
    {
      "children": [
        6
      ],
      "name": "Eyes_3"
    },
    {
      "mesh": 1,
      "name": "Object_6"
    }
  ],
  "samplers": [
    {
      "magFilter": 9729,
      "minFilter": 9987,
      "wrapS": 10497,
      "wrapT": 10497
    }
  ],
  "scene": 0,
  "scenes": [
    {
      "name": "Sketchfab_Scene",
      "nodes": [
        0
      ]
    }
  ],
  "textures": [
    {
      "sampler": 0,
      "source": 0
    },
    {
      "sampler": 0,
      "source": 1
    }
  ]
}
